<svg width="491" height="120" viewBox="0 0 491 120" fill="none" xmlns="http://www.w3.org/2000/svg">
<path d="M72.1027 19.904V24.944H100.279V19.904H72.1027ZM68.0227 49.28V54.464H108.199V49.28H68.0227ZM96.9187 19.904V25.184C96.9187 31.184 96.9187 37.52 95.2867 46.064L101.671 46.592C103.255 37.472 103.255 31.424 103.255 25.184V19.904H96.9187ZM112.131 37.328V42.32H152.403V37.328H112.131ZM129.027 39.056V46.064H135.363V39.056H129.027ZM117.123 44.24V59.792H147.603V44.24H141.315V47.744H123.411V44.24H117.123ZM123.411 52.352H141.315V54.992H123.411V52.352ZM117.075 16.496V21.248H141.219V23.504H117.123V33.104H123.459V27.968H147.507V16.496H117.075ZM117.123 30.416V35.12H148.371V30.416H117.123ZM176.399 16.448C166.223 16.448 160.319 19.136 160.319 24.032C160.319 28.928 166.223 31.616 176.399 31.616C186.527 31.616 192.479 28.928 192.479 24.032C192.479 19.136 186.527 16.448 176.399 16.448ZM176.399 21.104C182.831 21.104 185.855 22.064 185.855 24.032C185.855 26.096 182.831 26.96 176.399 26.96C169.967 26.96 166.943 26.096 166.943 24.032C166.943 22.064 169.967 21.104 176.399 21.104ZM156.287 33.68V38.72H196.463V33.68H156.287ZM160.895 41.216V45.968H185.327V48.224H160.943V56.576H167.231V52.64H191.615V41.216H160.895ZM160.943 55.184V59.984H192.767V55.184H160.943ZM221.302 23.216V24.848C221.302 29.648 218.182 34.4 210.982 36.32L213.91 41.312C222.406 39.008 226.438 32.384 226.438 24.848V23.216H221.302ZM222.502 23.216V24.848C222.502 32 226.486 38.336 235.078 40.496L237.91 35.6C230.758 33.776 227.686 29.264 227.686 24.848V23.216H222.502ZM212.566 20.096V25.088H236.422V20.096H212.566ZM221.302 15.68V22.4H227.686V15.68H221.302ZM239.926 15.824V41.12H246.31V15.824H239.926ZM244.534 25.76V30.992H252.214V25.76H244.534ZM228.598 45.152V46.208C228.598 50.048 224.47 54.176 215.206 55.28L217.51 60.128C228.214 58.736 233.974 53.12 233.974 46.208V45.152H228.598ZM229.99 45.152V46.208C229.99 52.928 235.75 58.832 246.502 60.224L248.758 55.376C239.638 54.176 235.414 49.904 235.414 46.208V45.152H229.99ZM217.078 43.04V48.08H246.886V43.04H217.078ZM267.859 18.176C260.995 18.176 255.763 22.64 255.763 28.928C255.763 35.216 260.995 39.728 267.859 39.728C274.723 39.728 279.955 35.216 279.955 28.928C279.955 22.64 274.723 18.176 267.859 18.176ZM267.859 23.504C271.219 23.504 273.715 25.52 273.715 28.928C273.715 32.384 271.219 34.352 267.859 34.352C264.499 34.352 262.003 32.384 262.003 28.928C262.003 25.52 264.499 23.504 267.859 23.504ZM284.083 15.824V40.64H290.467V15.824H284.083ZM288.691 25.328V30.512H296.371V25.328H288.691ZM264.883 42.512V44.144C264.883 48.512 262.483 53.024 256.675 55.088L259.843 59.744C266.755 57.2 269.635 50.96 269.635 44.144V42.512H264.883ZM266.467 42.512V44.144C266.467 50.768 269.011 57.488 276.067 60.176L278.707 55.472C273.187 53.168 271.075 48.56 271.075 44.144V42.512H266.467ZM281.059 42.512V44.144C281.059 48.128 278.899 52.976 273.427 55.472L276.067 60.176C283.075 57.392 285.667 50.336 285.667 44.144V42.512H281.059ZM282.547 42.512V44.144C282.547 51.248 285.379 57.248 292.387 59.744L295.507 55.088C289.699 53.168 287.347 48.848 287.347 44.144V42.512H282.547ZM304.335 42.464V59.792H334.767V42.464H328.431V46.208H310.623V42.464H304.335ZM310.623 50.96H328.431V54.8H310.623V50.96ZM299.631 35.216V40.256H339.807V35.216H299.631ZM316.479 16.304V17.648C316.479 22.16 311.631 27.104 301.599 28.304L303.855 33.248C315.327 31.76 321.951 25.376 321.951 17.648V16.304H316.479ZM317.535 16.304V17.648C317.535 25.328 324.111 31.76 335.583 33.248L337.839 28.304C327.855 27.104 323.007 22.112 323.007 17.648V16.304H317.535ZM374.555 15.824V60.272H380.939V15.824H374.555ZM346.139 20.048V47.648H352.475V20.048H346.139ZM346.139 43.904V49.328H350.075C356.843 49.328 364.187 48.848 371.819 47.264L371.099 41.984C363.755 43.424 356.555 43.904 350.075 43.904H346.139ZM416.359 15.776V60.368H422.791V15.776H416.359ZM421.351 32.24V37.472H429.223V32.24H421.351ZM389.671 44.384V49.664H393.415C401.143 49.664 407.239 49.472 413.959 48.272L413.335 42.992C406.807 44.144 400.903 44.384 393.415 44.384H389.671ZM389.671 19.904V46.928H396.007V25.04H410.407V19.904H389.671ZM436.756 43.904H441.364L442.372 26.192L442.564 19.52H435.508L435.7 26.192L436.756 43.904ZM439.012 56.672C441.556 56.672 443.428 54.704 443.428 52.064C443.428 49.424 441.556 47.504 439.012 47.504C436.516 47.504 434.644 49.424 434.644 52.064C434.644 54.704 436.516 56.672 439.012 56.672Z" fill="url(#paint0_linear_158_2)"/>
<path d="M16.5008 110.81C18.2388 110.81 19.6468 109.38 19.6468 107.466C19.6468 105.53 18.2388 104.1 16.5008 104.1C14.7408 104.1 13.3328 105.53 13.3328 107.466C13.3328 109.38 14.7408 110.81 16.5008 110.81ZM48.004 95.608V111.118H50.93V95.608H48.004ZM45.342 100.646V102.978H49.104V100.646H45.342ZM45.342 105.024V107.334H49.104V105.024H45.342ZM33.946 97.72V100.008H45.122V97.72H33.946ZM39.666 100.734C36.894 100.734 34.892 102.384 34.892 104.738C34.892 107.092 36.894 108.742 39.666 108.742C42.438 108.742 44.44 107.092 44.44 104.738C44.44 102.384 42.438 100.734 39.666 100.734ZM39.666 102.978C40.854 102.978 41.69 103.616 41.69 104.738C41.69 105.882 40.854 106.498 39.666 106.498C38.478 106.498 37.642 105.882 37.642 104.738C37.642 103.616 38.478 102.978 39.666 102.978ZM38.214 95.542V99.128H41.14V95.542H38.214ZM37.444 113.274V115.606H51.37V113.274H37.444ZM37.444 109.842V114.352H40.392V109.842H37.444ZM68.9903 95.586V115.958H71.7623V95.586H68.9903ZM66.5483 103.396V105.772H69.9363V103.396H66.5483ZM64.6123 95.894V115.034H67.3403V95.894H64.6123ZM57.7483 98.754V100.558C57.7483 104.474 56.7803 108.082 53.7223 109.842L55.4823 112.086C58.8703 110.04 59.9703 105.596 59.9703 100.558V98.754H57.7483ZM58.3423 98.754V100.558C58.3423 105.288 59.5523 109.49 62.9843 111.338L64.6563 109.116C61.6203 107.532 60.5863 104.144 60.5863 100.558V98.754H58.3423ZM54.3823 97.654V100.008H63.6443V97.654H54.3823ZM80.2429 114H90.0549V111.382H86.9969V97.72H84.5989C83.5429 98.358 82.4429 98.776 80.7929 99.084V101.086H83.7629V111.382H80.2429V114ZM102.174 98.534V100.844H107.366V98.534H102.174ZM102.174 102.604V104.936H107.454V102.604H102.174ZM106.442 95.586V107.51H109.368V95.586H106.442ZM93.1535 97.06V106.41H102.79V97.06H93.1535ZM99.9075 99.37V104.122H96.0355V99.37H99.9075ZM102.46 108.038C98.1475 108.038 95.4855 109.512 95.4855 111.998C95.4855 114.506 98.1475 115.958 102.46 115.958C106.772 115.958 109.434 114.506 109.434 111.998C109.434 109.512 106.772 108.038 102.46 108.038ZM102.46 110.282C105.122 110.282 106.53 110.832 106.53 111.998C106.53 113.164 105.122 113.736 102.46 113.736C99.8195 113.736 98.4115 113.164 98.4115 111.998C98.4115 110.832 99.8195 110.282 102.46 110.282ZM132.258 95.586V115.958H135.03V95.586H132.258ZM129.53 103.418V105.772H132.918V103.418H129.53ZM127.704 95.938V114.99H130.41V95.938H127.704ZM118.112 108.962V111.36H119.542C122.16 111.36 124.316 111.294 126.78 110.81L126.56 108.434C124.14 108.874 122.05 108.962 119.542 108.962H118.112ZM118.112 97.94V110.106H121.016V100.294H125.636V97.94H118.112ZM151.814 95.586V115.958H154.762V95.586H151.814ZM145.808 97.698V98.226C145.808 103.682 143.696 107.378 137.844 110.194L139.362 112.526C146.6 109.028 148.712 103.924 148.712 97.698H145.808ZM138.922 97.698V100.008H147.194V97.698H138.922ZM170.745 105.816V109.402H173.671V105.816H170.745ZM163.001 104.848V107.158H181.415V104.848H163.001ZM172.175 108.61C167.753 108.61 165.091 109.93 165.091 112.284C165.091 114.638 167.753 115.958 172.175 115.958C176.575 115.958 179.237 114.638 179.237 112.284C179.237 109.93 176.575 108.61 172.175 108.61ZM172.175 110.81C174.903 110.81 176.289 111.272 176.289 112.284C176.289 113.274 174.903 113.758 172.175 113.758C169.447 113.758 168.061 113.274 168.061 112.284C168.061 111.272 169.447 110.81 172.175 110.81ZM170.195 97.5V98.006C170.195 99.59 168.237 101.394 163.771 101.768L164.783 104.056C170.041 103.572 172.791 101.064 172.791 98.006V97.5H170.195ZM171.625 97.5V98.006C171.625 101.086 174.397 103.572 179.633 104.056L180.645 101.768C176.157 101.394 174.221 99.612 174.221 98.006V97.5H171.625ZM164.673 96.422V98.732H179.765V96.422H164.673ZM192.492 118.444L194.494 117.608C192.646 114.396 191.81 110.678 191.81 107.07C191.81 103.484 192.646 99.766 194.494 96.554L192.492 95.696C190.402 99.084 189.192 102.692 189.192 107.07C189.192 111.47 190.402 115.056 192.492 118.444ZM197.44 114H207.252V111.382H204.194V97.72H201.796C200.74 98.358 199.64 98.776 197.99 99.084V101.086H200.96V111.382H197.44V114ZM219.371 98.534V100.844H224.563V98.534H219.371ZM219.371 102.604V104.936H224.651V102.604H219.371ZM223.639 95.586V107.51H226.565V95.586H223.639ZM210.351 97.06V106.41H219.987V97.06H210.351ZM217.105 99.37V104.122H213.233V99.37H217.105ZM219.657 108.038C215.345 108.038 212.683 109.512 212.683 111.998C212.683 114.506 215.345 115.958 219.657 115.958C223.969 115.958 226.631 114.506 226.631 111.998C226.631 109.512 223.969 108.038 219.657 108.038ZM219.657 110.282C222.319 110.282 223.727 110.832 223.727 111.998C223.727 113.164 222.319 113.736 219.657 113.736C217.017 113.736 215.609 113.164 215.609 111.998C215.609 110.832 217.017 110.282 219.657 110.282ZM248.773 95.586V106.014H251.721V95.586H248.773ZM237.927 106.828V109.072H248.817V110.238H237.971V114.792H240.853V112.328H251.721V106.828H237.927ZM237.971 113.56V115.826H252.271V113.56H237.971ZM235.617 96.818V99.062H246.595V96.818H235.617ZM235.375 105.662C238.895 105.64 243.471 105.552 247.497 104.892L247.343 102.802C243.405 103.286 238.653 103.352 235.089 103.352L235.375 105.662ZM237.223 97.83V104.496H240.017V97.83H237.223ZM242.151 97.83V104.496H244.989V97.83H242.151ZM259.046 105.926V111.646H261.95V105.926H259.046ZM266.438 105.926V111.646H269.364V105.926H266.438ZM254.998 111.228V113.604H273.434V111.228H254.998ZM264.194 96.576C259.794 96.576 256.582 98.732 256.582 102.054C256.582 105.376 259.794 107.51 264.194 107.51C268.572 107.51 271.806 105.376 271.806 102.054C271.806 98.732 268.572 96.576 264.194 96.576ZM264.194 98.864C267.032 98.864 268.924 100.03 268.924 102.054C268.924 104.056 267.032 105.244 264.194 105.244C261.356 105.244 259.464 104.056 259.464 102.054C259.464 100.03 261.356 98.864 264.194 98.864ZM277.48 118.444C279.548 115.056 280.758 111.47 280.758 107.07C280.758 102.692 279.548 99.084 277.48 95.696L275.456 96.554C277.304 99.766 278.162 103.484 278.162 107.07C278.162 110.678 277.304 114.396 275.456 117.608L277.48 118.444Z" fill="#767676"/>
<defs>
<linearGradient id="paint0_linear_158_2" x1="46.6786" y1="42" x2="450.567" y2="47.8195" gradientUnits="userSpaceOnUse">
<stop stop-color="#FF7878"/>
<stop offset="1" stop-color="#1D59F2"/>
</linearGradient>
</defs>
</svg>
