<svg width="200" height="55" viewBox="0 0 200 55" fill="none" xmlns="http://www.w3.org/2000/svg">
<rect width="200" height="55" rx="22" fill="#FF6969"/>
<path d="M62.9678 29.488V38.464H66.1838V29.488H62.9678ZM72.7358 16.912V39.136H75.9038V16.912H72.7358ZM57.6158 31.336C61.7678 31.36 66.7838 31.336 71.6798 30.52L71.5358 28.192C66.8078 28.768 61.4798 28.744 57.2558 28.744L57.6158 31.336ZM59.1758 23.944V26.488H70.1678V23.944H59.1758ZM59.1758 18.088V25.648H62.3678V20.608H69.9278V18.088H59.1758ZM79.4059 34.096V36.688H99.5179V34.096H79.4059ZM87.8299 29.896V35.152H91.0219V29.896H87.8299ZM81.6619 18.352V20.872H94.0939V23.248H81.7099V29.488H84.8779V25.744H97.2619V18.352H81.6619ZM81.7099 28.216V30.784H97.7659V28.216H81.7099ZM115.668 16.888V39.112H118.884V16.888H115.668ZM118.044 25.384V28H121.956V25.384H118.044ZM109.836 19.192V19.744C109.836 25.768 107.076 29.848 101.244 32.872L103.02 35.296C110.412 31.576 112.956 25.864 112.956 19.192H109.836ZM102.468 19.192V21.76H111.468V19.192H102.468ZM138.85 16.912V39.136H142.066V16.912H138.85ZM132.298 19.216V19.792C132.298 25.744 129.994 29.776 123.61 32.848L125.266 35.392C133.162 31.576 135.466 26.008 135.466 19.216H132.298ZM124.786 19.216V21.736H133.81V19.216H124.786Z" fill="white"/>
</svg>
