<svg width="200" height="55" viewBox="0 0 200 55" fill="none" xmlns="http://www.w3.org/2000/svg">
<rect width="200" height="55" rx="22" fill="#4370E3"/>
<path d="M62.2958 20.632V21.448C62.2958 23.896 60.7358 26.344 57.1357 27.328L58.6238 29.8C62.8718 28.624 64.8638 25.264 64.8638 21.448V20.632H62.2958ZM62.8958 20.632V21.448C62.8958 25.072 64.8878 28.312 69.1598 29.44L70.5998 26.944C67.0238 26.008 65.4878 23.704 65.4878 21.448V20.632H62.8958ZM57.9277 19.12V21.616H69.8558V19.12H57.9277ZM62.2958 16.84V20.2H65.4878V16.84H62.2958ZM71.6078 16.912V29.92H74.7998V16.912H71.6078ZM73.9118 22.096V24.712H77.7518V22.096H73.9118ZM60.3518 30.856V38.896H74.7998V30.856H60.3518ZM71.6798 33.352V36.376H63.4958V33.352H71.6798ZM93.5899 16.888V39.112H96.8059V16.888H93.5899ZM95.9659 25.384V28H99.8779V25.384H95.9659ZM87.7579 19.192V19.744C87.7579 25.768 84.9979 29.848 79.1659 32.872L80.9419 35.296C88.3339 31.576 90.8779 25.864 90.8779 19.192H87.7579ZM80.3899 19.192V21.76H89.3899V19.192H80.3899ZM115.716 16.912V39.136H118.884V16.912H115.716ZM118.164 25.576V28.24H122.1V25.576H118.164ZM101.364 20.2V22.744H114.3V20.2H101.364ZM107.868 23.992C104.628 23.992 102.228 26.2 102.228 29.296C102.228 32.392 104.628 34.6 107.868 34.6C111.108 34.6 113.508 32.392 113.508 29.296C113.508 26.2 111.108 23.992 107.868 23.992ZM107.868 26.584C109.38 26.584 110.46 27.592 110.46 29.296C110.46 31 109.38 32.008 107.868 32.008C106.356 32.008 105.276 31 105.276 29.296C105.276 27.592 106.356 26.584 107.868 26.584ZM106.26 17.272V21.16H109.452V17.272H106.26ZM138.85 16.912V39.136H142.066V16.912H138.85ZM132.298 19.216V19.792C132.298 25.744 129.994 29.776 123.61 32.848L125.266 35.392C133.162 31.576 135.466 26.008 135.466 19.216H132.298ZM124.786 19.216V21.736H133.81V19.216H124.786Z" fill="white"/>
</svg>
