<svg width="468" height="136" viewBox="0 0 468 136" fill="none" xmlns="http://www.w3.org/2000/svg">
<path d="M21.5871 19.904V24.944H49.7631V19.904H21.5871ZM17.5071 49.28V54.464H57.6831V49.28H17.5071ZM46.4031 19.904V25.184C46.4031 31.184 46.4031 37.52 44.7711 46.064L51.1551 46.592C52.7391 37.472 52.7391 31.424 52.7391 25.184V19.904H46.4031ZM61.6153 37.328V42.32H101.887V37.328H61.6153ZM78.5113 39.056V46.064H84.8473V39.056H78.5113ZM66.6073 44.24V59.792H97.0873V44.24H90.7993V47.744H72.8953V44.24H66.6073ZM72.8953 52.352H90.7993V54.992H72.8953V52.352ZM66.5593 16.496V21.248H90.7033V23.504H66.6073V33.104H72.9433V27.968H96.9913V16.496H66.5593ZM66.6073 30.416V35.12H97.8553V30.416H66.6073ZM125.884 16.448C115.708 16.448 109.804 19.136 109.804 24.032C109.804 28.928 115.708 31.616 125.884 31.616C136.012 31.616 141.964 28.928 141.964 24.032C141.964 19.136 136.012 16.448 125.884 16.448ZM125.884 21.104C132.316 21.104 135.34 22.064 135.34 24.032C135.34 26.096 132.316 26.96 125.884 26.96C119.452 26.96 116.428 26.096 116.428 24.032C116.428 22.064 119.452 21.104 125.884 21.104ZM105.772 33.68V38.72H145.948V33.68H105.772ZM110.38 41.216V45.968H134.812V48.224H110.428V56.576H116.716V52.64H141.1V41.216H110.38ZM110.428 55.184V59.984H142.252V55.184H110.428ZM170.787 23.216V24.848C170.787 29.648 167.667 34.4 160.467 36.32L163.395 41.312C171.891 39.008 175.923 32.384 175.923 24.848V23.216H170.787ZM171.987 23.216V24.848C171.987 32 175.971 38.336 184.563 40.496L187.395 35.6C180.243 33.776 177.171 29.264 177.171 24.848V23.216H171.987ZM162.051 20.096V25.088H185.907V20.096H162.051ZM170.787 15.68V22.4H177.171V15.68H170.787ZM189.411 15.824V41.12H195.795V15.824H189.411ZM194.019 25.76V30.992H201.699V25.76H194.019ZM178.083 45.152V46.208C178.083 50.048 173.955 54.176 164.691 55.28L166.995 60.128C177.699 58.736 183.459 53.12 183.459 46.208V45.152H178.083ZM179.475 45.152V46.208C179.475 52.928 185.235 58.832 195.987 60.224L198.243 55.376C189.123 54.176 184.899 49.904 184.899 46.208V45.152H179.475ZM166.563 43.04V48.08H196.371V43.04H166.563ZM215.663 22.832V27.824C215.663 35.36 212.063 43.568 204.623 46.88L208.223 51.92C216.575 48.128 220.751 38.096 220.751 27.824V22.832H215.663ZM217.103 22.832V27.824C217.103 37.712 221.231 47.168 229.679 50.816L233.135 45.776C225.695 42.704 222.143 35.024 222.143 27.824V22.832H217.103ZM206.399 20.096V25.328H231.311V20.096H206.399ZM235.439 15.824V60.272H241.871V15.824H235.439ZM264.934 17.552V33.008H295.126V17.552H264.934ZM288.838 22.544V28.016H271.174V22.544H288.838ZM259.99 36.944V41.984H300.166V36.944H259.99ZM276.886 31.856V38.576H283.222V31.856H276.886ZM276.838 44V44.816C276.838 49.472 272.47 53.984 262.63 55.184L264.934 60.08C276.166 58.544 282.31 52.64 282.31 44.816V44H276.838ZM277.846 44V44.816C277.846 52.64 283.942 58.544 295.174 60.08L297.478 55.184C287.638 53.984 283.318 49.472 283.318 44.816V44H277.846ZM335.971 15.872V43.184H342.019V15.872H335.971ZM330.547 27.2V32.336H337.651V27.2H330.547ZM326.803 16.448V42.752H332.755V16.448H326.803ZM303.955 20.096V25.04H325.507V20.096H303.955ZM314.803 26.384C309.235 26.384 305.203 29.552 305.203 34.16C305.203 38.768 309.235 41.936 314.803 41.936C320.371 41.936 324.403 38.768 324.403 34.16C324.403 29.552 320.371 26.384 314.803 26.384ZM314.803 30.992C317.107 30.992 318.691 32.096 318.691 34.16C318.691 36.224 317.107 37.376 314.803 37.376C312.451 37.376 310.867 36.224 310.867 34.16C310.867 32.096 312.451 30.992 314.803 30.992ZM311.587 16.112V23.6H317.875V16.112H311.587ZM314.851 44.624V45.488C314.851 49.376 312.355 53.36 306.643 55.04L309.571 59.744C316.579 57.488 319.651 51.776 319.651 45.488V44.624H314.851ZM316.531 44.624V45.488C316.531 51.584 319.075 57.776 325.987 60.176L328.531 55.472C323.203 53.504 321.091 49.424 321.091 45.488V44.624H316.531ZM330.883 44.624V45.488C330.883 49.088 328.675 53.312 323.491 55.472L325.987 60.176C332.851 57.68 335.443 51.2 335.443 45.488V44.624H330.883ZM332.467 44.624V45.488C332.467 52.016 335.395 57.584 342.499 59.744L345.475 55.04C339.667 53.504 337.219 49.616 337.219 45.488V44.624H332.467ZM360.495 18.896C353.823 18.896 349.023 25.04 349.023 34.736C349.023 44.528 353.823 50.672 360.495 50.672C367.119 50.672 371.967 44.528 371.967 34.736C371.967 25.04 367.119 18.896 360.495 18.896ZM360.495 24.704C363.759 24.704 365.871 28.208 365.871 34.736C365.871 41.36 363.759 44.912 360.495 44.912C357.279 44.912 355.119 41.36 355.119 34.736C355.119 28.208 357.279 24.704 360.495 24.704ZM379.263 15.776V60.368H385.599V15.776H379.263ZM370.095 31.808V36.944H381.951V31.808H370.095ZM401.339 38.384V50.864H407.675V38.384H401.339ZM417.467 38.384V50.864H423.851V38.384H417.467ZM392.507 49.952V55.136H432.731V49.952H392.507ZM412.571 17.984C402.971 17.984 395.963 22.688 395.963 29.936C395.963 37.184 402.971 41.84 412.571 41.84C422.123 41.84 429.179 37.184 429.179 29.936C429.179 22.688 422.123 17.984 412.571 17.984ZM412.571 22.976C418.763 22.976 422.891 25.52 422.891 29.936C422.891 34.304 418.763 36.896 412.571 36.896C406.379 36.896 402.251 34.304 402.251 29.936C402.251 25.52 406.379 22.976 412.571 22.976ZM441.271 43.904H445.879L446.887 26.192L447.079 19.52H440.023L440.215 26.192L441.271 43.904ZM443.527 56.672C446.071 56.672 447.943 54.704 447.943 52.064C447.943 49.424 446.071 47.504 443.527 47.504C441.031 47.504 439.159 49.424 439.159 52.064C439.159 54.704 441.031 56.672 443.527 56.672Z" fill="url(#paint0_linear_163_5)"/>
<path d="M61.3199 81.456V83.766H74.2339V81.456H61.3199ZM59.4499 94.92V97.296H77.8639V94.92H59.4499ZM72.6939 81.456V83.876C72.6939 86.626 72.6939 89.53 71.9459 93.446L74.8719 93.688C75.5979 89.508 75.5979 86.736 75.5979 83.876V81.456H72.6939ZM79.6661 89.442V91.73H98.1241V89.442H79.6661ZM87.4101 90.234V93.446H90.3141V90.234H87.4101ZM81.9541 92.61V99.738H95.9241V92.61H93.0421V94.216H84.8361V92.61H81.9541ZM84.8361 96.328H93.0421V97.538H84.8361V96.328ZM81.9321 79.894V82.072H92.9981V83.106H81.9541V87.506H84.8581V85.152H95.8801V79.894H81.9321ZM81.9541 86.274V88.43H96.2761V86.274H81.9541ZM109.122 79.872C104.458 79.872 101.752 81.104 101.752 83.348C101.752 85.592 104.458 86.824 109.122 86.824C113.764 86.824 116.492 85.592 116.492 83.348C116.492 81.104 113.764 79.872 109.122 79.872ZM109.122 82.006C112.07 82.006 113.456 82.446 113.456 83.348C113.456 84.294 112.07 84.69 109.122 84.69C106.174 84.69 104.788 84.294 104.788 83.348C104.788 82.446 106.174 82.006 109.122 82.006ZM99.9044 87.77V90.08H118.318V87.77H99.9044ZM102.016 91.224V93.402H113.214V94.436H102.038V98.264H104.92V96.46H116.096V91.224H102.016ZM102.038 97.626V99.826H116.624V97.626H102.038ZM125.919 82.116V84.448H142.727V82.116H125.919ZM125.149 95.558V97.912H143.585V95.558H125.149ZM132.871 92.874V96.482H135.775V92.874H132.871ZM134.301 85.328C130.055 85.328 127.393 86.802 127.393 89.31C127.393 91.818 130.055 93.292 134.301 93.292C138.547 93.292 141.209 91.818 141.209 89.31C141.209 86.802 138.547 85.328 134.301 85.328ZM134.301 87.594C136.853 87.594 138.217 88.144 138.217 89.31C138.217 90.476 136.853 91.004 134.301 91.004C131.749 91.004 130.385 90.476 130.385 89.31C130.385 88.144 131.749 87.594 134.301 87.594ZM132.871 79.806V83.568H135.775V79.806H132.871ZM152.933 80.752V82.226C152.933 85.152 150.403 88.386 145.805 89.178L147.059 91.598C152.339 90.564 155.485 86.648 155.485 82.226V80.752H152.933ZM153.527 80.752V82.226C153.527 86.714 156.651 90.564 161.931 91.598L163.185 89.178C158.565 88.386 156.057 85.218 156.057 82.226V80.752H153.527ZM145.387 95.096V97.472H163.823V95.096H145.387ZM167.782 90.08V92.368H182.104V90.08H167.782ZM165.626 95.25V97.626H184.062V95.25H165.626ZM167.782 81.06V90.718H170.752V83.414H181.928V81.06H167.782ZM169.85 85.548V87.814H181.466V85.548H169.85ZM198.91 79.586V99.958H201.814V79.586H198.91ZM201.154 87.528V89.97H204.762V87.528H201.154ZM185.754 82.6V84.932H197.612V82.6H185.754ZM191.716 86.076C188.746 86.076 186.546 88.1 186.546 90.938C186.546 93.776 188.746 95.8 191.716 95.8C194.686 95.8 196.886 93.776 196.886 90.938C196.886 88.1 194.686 86.076 191.716 86.076ZM191.716 88.452C193.102 88.452 194.092 89.376 194.092 90.938C194.092 92.5 193.102 93.424 191.716 93.424C190.33 93.424 189.34 92.5 189.34 90.938C189.34 89.376 190.33 88.452 191.716 88.452ZM190.242 79.916V83.48H193.168V79.916H190.242ZM207.972 81.302V83.656H220.886V81.302H207.972ZM206.102 95.14V97.516H224.516V95.14H206.102ZM212.614 88.144V96.306H215.54V88.144H212.614ZM219.83 81.302V83.26C219.83 85.702 219.83 88.65 219.016 92.698L221.942 93.028C222.756 88.672 222.756 85.812 222.756 83.26V81.302H219.83ZM227.264 102.708C229.948 101.828 231.422 99.87 231.422 97.274C231.422 95.294 230.586 94.106 229.112 94.106C227.946 94.106 227 94.854 227 96.02C227 97.23 227.968 97.934 229.024 97.934C229.508 97.934 229.948 97.78 230.278 97.45L229.134 95.558L229.244 97.846C229.266 99.144 228.32 100.31 226.604 100.948L227.264 102.708ZM243.033 81.148V84.118C243.033 87.902 241.471 91.818 238.039 93.424L239.799 95.778C243.649 93.886 245.409 89.156 245.409 84.118V81.148H243.033ZM243.627 81.148V84.118C243.627 89.002 245.233 93.534 248.907 95.404L250.667 93.072C247.411 91.488 245.959 87.77 245.959 84.118V81.148H243.627ZM251.481 79.586V99.958H254.429V79.586H251.481ZM253.769 87.418V89.86H257.377V87.418H253.769ZM271.807 79.608V91.686H274.733V79.608H271.807ZM273.897 84.382V86.802H277.439V84.382H273.897ZM261.467 92.566V99.738H274.733V92.566H261.467ZM271.873 94.854V97.428H264.349V94.854H271.873ZM259.421 88.606V90.982H261.137C265.251 90.982 267.825 90.872 270.685 90.322L270.421 88.012C267.605 88.54 265.141 88.606 261.137 88.606H259.421ZM259.399 80.598V82.93H265.823V84.624H259.421V89.904H262.325V86.802H268.705V80.598H259.399ZM278.956 87.484V89.794H297.392V87.484H278.956ZM281.222 84.096V86.384H295.214V84.096H281.222ZM281.222 79.96V86.076H284.126V82.292H295.038V79.96H281.222ZM281.046 90.938V93.138H292.244V94.26H281.068V98.088H283.95V96.328H295.126V90.938H281.046ZM281.068 97.56V99.804H295.654V97.56H281.068ZM313.142 79.564V100.002H316.09V79.564H313.142ZM305.112 80.994C302.032 80.994 299.766 83.81 299.766 88.254C299.766 92.742 302.032 95.558 305.112 95.558C308.192 95.558 310.458 92.742 310.458 88.254C310.458 83.81 308.192 80.994 305.112 80.994ZM305.112 83.656C306.63 83.656 307.642 85.262 307.642 88.254C307.642 91.29 306.63 92.918 305.112 92.918C303.594 92.918 302.56 91.29 302.56 88.254C302.56 85.262 303.594 83.656 305.112 83.656ZM332.117 86.032V88.738H335.021V86.032H332.117ZM333.613 79.784C328.949 79.784 326.243 80.994 326.243 83.238C326.243 85.482 328.949 86.714 333.613 86.714C338.255 86.714 340.983 85.482 340.983 83.238C340.983 80.994 338.255 79.784 333.613 79.784ZM333.613 81.918C336.561 81.918 337.947 82.336 337.947 83.238C337.947 84.184 336.561 84.58 333.613 84.58C330.665 84.58 329.279 84.184 329.279 83.238C329.279 82.336 330.665 81.918 333.613 81.918ZM324.395 87.836V90.146H342.809V87.836H324.395ZM326.507 91.224V93.402H337.705V94.436H326.529V98.264H329.411V96.46H340.587V91.224H326.507ZM326.529 97.626V99.826H341.115V97.626H326.529ZM360.507 79.894V99.034H363.169V79.894H360.507ZM362.091 87.462V89.816H365.677V87.462H362.091ZM349.947 92.654V95.052H350.871C351.927 95.052 353.005 95.03 354.457 94.7L354.259 92.324C352.895 92.632 351.839 92.654 350.871 92.654H349.947ZM349.947 82.006V93.952H352.609V84.338H354.237V82.006H349.947ZM355.007 92.654V95.052H355.953C357.185 95.052 358.373 95.03 359.891 94.678L359.693 92.302C358.241 92.632 357.097 92.654 355.953 92.654H355.007ZM355.007 82.006V93.93H357.625V84.338H359.451V82.006H355.007ZM364.643 79.586V99.958H367.393V79.586H364.643ZM383.122 79.586V99.958H386.048V79.586H383.122ZM385.146 87.55V89.97H388.688V87.55H385.146ZM373.134 81.654V82.006C373.134 87.176 372.584 90.564 369.438 94.04L371.726 95.69C375.334 91.642 375.862 87.308 375.862 81.654H373.134ZM370.34 81.654V84.03H374.278V81.654H370.34ZM378.744 81.654V81.984C378.744 87.55 378.238 91.466 375.158 95.36L377.446 96.988C380.988 92.566 381.472 87.572 381.472 81.654H378.744ZM376.544 81.654V84.03H379.954V81.654H376.544ZM395 82.798V85.086C395 88.54 393.35 92.302 389.94 93.82L391.59 96.13C395.418 94.392 397.332 89.794 397.332 85.086V82.798H395ZM395.66 82.798V85.086C395.66 89.618 397.552 93.952 401.424 95.624L403.008 93.314C399.598 91.906 397.97 88.386 397.97 85.086V82.798H395.66ZM390.754 81.544V83.942H402.172V81.544H390.754ZM404.064 79.586V99.958H407.012V79.586H404.064ZM173.78 111.586V131.958H176.552V111.586H173.78ZM171.052 119.418V121.772H174.44V119.418H171.052ZM169.226 111.938V130.99H171.932V111.938H169.226ZM159.634 124.962V127.36H161.064C163.682 127.36 165.838 127.294 168.302 126.81L168.082 124.434C165.662 124.874 163.572 124.962 161.064 124.962H159.634ZM159.634 113.94V126.106H162.538V116.294H167.158V113.94H159.634ZM193.336 111.586V131.958H196.284V111.586H193.336ZM187.33 113.698V114.226C187.33 119.682 185.218 123.378 179.366 126.194L180.884 128.526C188.122 125.028 190.234 119.924 190.234 113.698H187.33ZM180.444 113.698V116.008H188.716V113.698H180.444ZM212.65 111.564V122.564H215.576V111.564H212.65ZM214.41 115.92V118.296H218.282V115.92H214.41ZM202.112 123.378V125.49H212.694V126.568H202.156V130.396H205.06V128.548H215.576V123.378H202.112ZM202.156 129.67V131.826H216.17V129.67H202.156ZM199.538 113.082V115.282H211.528V113.082H199.538ZM205.544 115.766C202.508 115.766 200.528 117.064 200.528 119.11C200.528 121.156 202.508 122.41 205.544 122.41C208.558 122.41 210.538 121.156 210.538 119.11C210.538 117.064 208.558 115.766 205.544 115.766ZM205.544 117.812C206.908 117.812 207.744 118.252 207.744 119.11C207.744 119.924 206.908 120.364 205.544 120.364C204.18 120.364 203.344 119.924 203.344 119.11C203.344 118.252 204.18 117.812 205.544 117.812ZM204.07 111.432V114.644H206.996V111.432H204.07ZM232.439 112.18V113.126C232.439 115.524 230.129 118.186 225.443 118.802L226.587 121.156C231.933 120.364 235.013 117.042 235.013 113.126V112.18H232.439ZM232.989 112.18V113.126C232.989 117.042 236.069 120.364 241.415 121.156L242.537 118.802C237.873 118.186 235.541 115.502 235.541 113.126V112.18H232.989ZM232.461 124.5V131.958H235.365V124.5H232.461ZM224.783 122.652V125.028H243.197V122.652H224.783ZM254.56 123.95V124.632C254.56 126.612 253.438 128.636 250.776 129.538L252.206 131.672C255.396 130.528 256.76 127.712 256.76 124.632V123.95H254.56ZM255.308 123.95V124.632C255.308 127.624 256.474 130.66 259.708 131.87L260.874 129.714C258.388 128.68 257.398 126.612 257.398 124.632V123.95H255.308ZM261.996 123.95V124.632C261.996 126.436 260.984 128.592 258.498 129.714L259.708 131.87C262.876 130.616 264.086 127.448 264.086 124.632V123.95H261.996ZM262.678 123.95V124.632C262.678 127.844 263.998 130.572 267.232 131.672L268.662 129.538C265.978 128.702 264.878 126.744 264.878 124.632V123.95H262.678ZM263.976 111.608V123.114H266.924V111.608H263.976ZM255.836 112.642C252.668 112.642 250.292 114.666 250.292 117.526C250.292 120.364 252.668 122.388 255.836 122.388C259.004 122.388 261.358 120.364 261.358 117.526C261.358 114.666 259.004 112.642 255.836 112.642ZM255.836 115.062C257.376 115.062 258.498 115.964 258.498 117.526C258.498 119.066 257.376 119.968 255.836 119.968C254.296 119.968 253.152 119.066 253.152 117.526C253.152 115.964 254.296 115.062 255.836 115.062ZM275.81 112.994C272.752 112.994 270.552 115.81 270.552 120.254C270.552 124.742 272.752 127.558 275.81 127.558C278.846 127.558 281.068 124.742 281.068 120.254C281.068 115.81 278.846 112.994 275.81 112.994ZM275.81 115.656C277.306 115.656 278.274 117.262 278.274 120.254C278.274 123.29 277.306 124.918 275.81 124.918C274.336 124.918 273.346 123.29 273.346 120.254C273.346 117.262 274.336 115.656 275.81 115.656ZM284.412 111.564V132.002H287.316V111.564H284.412ZM280.21 118.912V121.266H285.644V118.912H280.21ZM294.53 121.926V127.646H297.434V121.926H294.53ZM301.922 121.926V127.646H304.848V121.926H301.922ZM290.482 127.228V129.604H308.918V127.228H290.482ZM299.678 112.576C295.278 112.576 292.066 114.732 292.066 118.054C292.066 121.376 295.278 123.51 299.678 123.51C304.056 123.51 307.29 121.376 307.29 118.054C307.29 114.732 304.056 112.576 299.678 112.576ZM299.678 114.864C302.516 114.864 304.408 116.03 304.408 118.054C304.408 120.056 302.516 121.244 299.678 121.244C296.84 121.244 294.948 120.056 294.948 118.054C294.948 116.03 296.84 114.864 299.678 114.864Z" fill="#767676"/>
<defs>
<linearGradient id="paint0_linear_163_5" x1="23.6786" y1="42" x2="427.567" y2="47.8195" gradientUnits="userSpaceOnUse">
<stop stop-color="#FF7878"/>
<stop offset="1" stop-color="#1D59F2"/>
</linearGradient>
</defs>
</svg>
