<svg width="200" height="55" viewBox="0 0 200 55" fill="none" xmlns="http://www.w3.org/2000/svg">
<rect width="200" height="55" rx="22" fill="#4370E3"/>
<path d="M68.9908 18.736V29.464H79.5748V18.736H68.9908ZM76.4308 21.256V26.944H72.1348V21.256H76.4308ZM82.6468 16.912V33.112H85.8388V16.912H82.6468ZM84.9268 23.32V25.936H88.7908V23.32H84.9268ZM71.5108 36.208V38.752H86.6308V36.208H71.5108ZM71.5108 31.528V37.48H74.7028V31.528H71.5108ZM90.4449 25.528V28.048H110.557V25.528H90.4449ZM92.9169 21.832V24.328H108.181V21.832H92.9169ZM92.9169 17.32V23.992H96.0849V19.864H107.989V17.32H92.9169ZM92.7249 29.296V31.696H104.941V32.92H92.7489V37.096H95.8929V35.176H108.085V29.296H92.7249ZM92.7489 36.52V38.968H108.661V36.52H92.7489ZM127.811 16.912V39.136H131.027V16.912H127.811ZM121.259 19.216V19.792C121.259 25.744 118.955 29.776 112.571 32.848L114.227 35.392C122.123 31.576 124.427 26.008 124.427 19.216H121.259ZM113.747 19.216V21.736H122.771V19.216H113.747Z" fill="white"/>
</svg>
